# xmcd
#
# Track frame offsets: 
#        150
#        14469
#        30844
#        51901
#        66688
#        82319
#        101069
#        117030
#        131316
#        147045
#        165152
#        180273
#        197730
#        212131
#        228640
#        244220
#        260361
#        279673
#        292315
#        308077
#
# Disc length: 4403 seconds
#
# Revision: 3
# Processed by: cddbd v1.5.2PL0 Copyright (c) Steve Scherf et al.
# Submitted via: ExactAudioCopy v0.99pb5
#
DISCID=25113114
DTITLE=Various Artist - Sounds Like Nashville - CD 2
DYEAR=2015
DGENRE=Country
TTITLE0=Luke Bryan - That's my kind of night
TTITLE1=Maddie and Tae - Girl in a country song
TTITLE2=Dierks Bentley - I hold on
TTITLE3=Lady Antebellum - Downtown
TTITLE4=Little Big Town - Pontoon
TTITLE5=Eric Church - Give me back my hometown
TTITLE6=Cassadee Pope - Wasting all these tears
TTITLE7=Sam Hunt - Leave the night on
TTITLE8=Florida Georgia Line - Cruise
TTITLE9=Mickey Guyton - Better than you left me
TTITLE10=Billy Currington - Hey girl
TTITLE11=David Nail - Whatever she's got
TTITLE12=Lucy Hale - You sound good to me
TTITLE13=Eli Young Band - Even if it breaks your heart
TTITLE14=Kevin Chase - Whole lotta honey
TTITLE15=Kip Moore - Hey pretty girl
TTITLE16=Krystal Keith - Daddy dance with me
TTITLE17=Eric Paslay - Friday night
TTITLE18=Danielle Bradbery - The heart of Dixie
TTITLE19=Darius Rucker - Wagon wheel
EXTD=YEAR: 2015
EXTT0=
EXTT1=
EXTT2=
EXTT3=
EXTT4=
EXTT5=
EXTT6=
EXTT7=
EXTT8=
EXTT9=
EXTT10=
EXTT11=
EXTT12=
EXTT13=
EXTT14=
EXTT15=
EXTT16=
EXTT17=
EXTT18=
EXTT19=
PLAYORDER=
